<svg xmlns="http://www.w3.org/2000/svg" xmlns:xlink="http://www.w3.org/1999/xlink" width="500" zoomAndPan="magnify" viewBox="0 0 375 374.999991" height="500" preserveAspectRatio="xMidYMid meet" version="1.0"><defs><clipPath id="19bfb8cef3"><path d="M 4.667969 4.667969 L 370.332031 4.667969 L 370.332031 370.332031 L 4.667969 370.332031 Z M 4.667969 4.667969 " clip-rule="nonzero"/></clipPath><clipPath id="2a40845e3b"><path d="M 187.5 4.667969 C 86.523438 4.667969 4.667969 86.523438 4.667969 187.5 C 4.667969 288.476562 86.523438 370.332031 187.5 370.332031 C 288.476562 370.332031 370.332031 288.476562 370.332031 187.5 C 370.332031 86.523438 288.476562 4.667969 187.5 4.667969 Z M 187.5 4.667969 " clip-rule="nonzero"/></clipPath><clipPath id="7098a023fb"><path d="M 0.667969 0.667969 L 366.332031 0.667969 L 366.332031 366.332031 L 0.667969 366.332031 Z M 0.667969 0.667969 " clip-rule="nonzero"/></clipPath><clipPath id="e3c87a041b"><path d="M 183.5 0.667969 C 82.523438 0.667969 0.667969 82.523438 0.667969 183.5 C 0.667969 284.476562 82.523438 366.332031 183.5 366.332031 C 284.476562 366.332031 366.332031 284.476562 366.332031 183.5 C 366.332031 82.523438 284.476562 0.667969 183.5 0.667969 Z M 183.5 0.667969 " clip-rule="nonzero"/></clipPath><clipPath id="8d62dbace3"><rect x="0" width="367" y="0" height="367"/></clipPath><clipPath id="9ef7044cb5"><path d="M 123.375 95.671875 L 284.070312 95.671875 L 284.070312 279.59375 L 123.375 279.59375 Z M 123.375 95.671875 " clip-rule="nonzero"/></clipPath><clipPath id="190cdff4d3"><path d="M 284.070312 187.5 L 123.375 279.324219 L 123.375 95.671875 Z M 284.070312 187.5 " clip-rule="nonzero"/></clipPath><clipPath id="9e363792ae"><path d="M 0.375 0.671875 L 161.070312 0.671875 L 161.070312 184.359375 L 0.375 184.359375 Z M 0.375 0.671875 " clip-rule="nonzero"/></clipPath><clipPath id="80d3f04cbd"><path d="M 161.070312 92.5 L 0.375 184.324219 L 0.375 0.671875 Z M 161.070312 92.5 " clip-rule="nonzero"/></clipPath><clipPath id="04c2a1fbcd"><rect x="0" width="162" y="0" height="185"/></clipPath></defs><g clip-path="url(#19bfb8cef3)"><g clip-path="url(#2a40845e3b)"><g transform="matrix(1, 0, 0, 1, 4, 4)"><g clip-path="url(#8d62dbace3)"><g clip-path="url(#7098a023fb)"><g clip-path="url(#e3c87a041b)"><path fill="#e62533" d="M 0.667969 0.667969 L 366.332031 0.667969 L 366.332031 366.332031 L 0.667969 366.332031 Z M 0.667969 0.667969 " fill-opacity="1" fill-rule="nonzero"/></g></g></g></g></g></g><g clip-path="url(#9ef7044cb5)"><g clip-path="url(#190cdff4d3)"><g transform="matrix(1, 0, 0, 1, 123, 95)"><g clip-path="url(#04c2a1fbcd)"><g clip-path="url(#9e363792ae)"><g clip-path="url(#80d3f04cbd)"><path fill="#ffffff" d="M 161.070312 0.671875 L 161.070312 184.59375 L 0.375 184.59375 L 0.375 0.671875 Z M 161.070312 0.671875 " fill-opacity="1" fill-rule="nonzero"/></g></g></g></g></g></g></svg>